<?xml version="1.0" encoding="UTF-8" standalone="no"?>
<!-- Created with Inkscape (http://www.inkscape.org/) -->

<svg
   xmlns:dc="http://purl.org/dc/elements/1.1/"
   xmlns:cc="http://creativecommons.org/ns#"
   xmlns:rdf="http://www.w3.org/1999/02/22-rdf-syntax-ns#"
   xmlns:svg="http://www.w3.org/2000/svg"
   xmlns="http://www.w3.org/2000/svg"
   xmlns:sodipodi="http://sodipodi.sourceforge.net/DTD/sodipodi-0.dtd"
   xmlns:inkscape="http://www.inkscape.org/namespaces/inkscape"
   width="64"
   height="64"
   id="svg2"
   version="1.1"
   inkscape:version="0.48.3.1 r9886"
   sodipodi:docname="indicator-fitbit-idle.svg">
  <defs
     id="defs4" />
  <sodipodi:namedview
     id="base"
     pagecolor="#282828"
     bordercolor="#666666"
     borderopacity="1.0"
     inkscape:pageopacity="1"
     inkscape:pageshadow="2"
     inkscape:zoom="5.12"
     inkscape:cx="31.43875"
     inkscape:cy="41.856498"
     inkscape:document-units="px"
     inkscape:current-layer="layer1"
     showgrid="false"
     inkscape:window-width="1382"
     inkscape:window-height="951"
     inkscape:window-x="409"
     inkscape:window-y="69"
     inkscape:window-maximized="0" />
  <metadata
     id="metadata7">
    <rdf:RDF>
      <cc:Work
         rdf:about="">
        <dc:format>image/svg+xml</dc:format>
        <dc:type
           rdf:resource="http://purl.org/dc/dcmitype/StillImage" />
        <dc:title></dc:title>
      </cc:Work>
    </rdf:RDF>
  </metadata>
  <g
     inkscape:label="Layer 1"
     inkscape:groupmode="layer"
     id="layer1"
     transform="translate(0,-988.36218)">
    <g
       style="font-size:628.14068603999999141px;font-style:normal;font-variant:normal;font-weight:normal;font-stretch:normal;text-align:start;line-height:125%;letter-spacing:0px;word-spacing:0px;writing-mode:lr-tb;text-anchor:start;fill:#ff0000;fill-opacity:1;stroke:none;font-family:Satellite;-inkscape-font-specification:Satellite"
       id="text3757">
      <path
         d="m 23.035805,994.2271 c -9.156494,0.16361 -16.866032,5.72745 -19.13249,13.498 -0.6346073,2.0447 -0.7256968,4.4155 -0.8163558,6.7875 0,2.2085 0.094715,4.4155 0.094715,6.7876 l 0,1.8842 0,23.2641 2.7196814,0 0,-23.2641 0,-1.8842 0,-8.6676 c 0,-8.5885 7.5246834,-15.70632 17.1344484,-15.95172 z"
         id="path3924"
         inkscape:connector-curvature="0"
         sodipodi:nodetypes="cccccccccscc"
         style="fill:#ff0000;fill-opacity:1" />
      <path
         d="m 25.676383,994.24339 0.07669,36.79871 c 0,0 0.201145,1.7 0.802811,3.4101 0.766198,2.1776 1.07344,2.6572 1.07344,2.6572 3.082387,5.8075 9.716721,9.3879 16.60675,9.3879 11.241632,0 19.763927,-8.4252 19.763927,-18.6496 0,-10.2244 -8.522295,-18.6496 -19.763927,-18.6496 -6.79936,0 -12.87536,3.3546 -15.867069,8.7531 l 0,-23.7078 -2.692619,0 z m 18.559689,17.40851 c 9.791088,0 17.044249,7.362 17.044249,16.1958 0,8.8339 -7.253161,16.1144 -17.04425,16.1144 -9.79111,0 -15.686653,-7.2805 -15.686653,-16.1144 0,-8.8338 5.895543,-16.1958 15.686653,-16.1958 z"
         id="path3926"
         inkscape:connector-curvature="0"
         style="fill:#ff0000;fill-opacity:1" />
      <rect
         style="fill:#ff0000;fill-opacity:1;stroke:none"
         id="rect3934"
         width="22.948999"
         height="2.1661546"
         x="-1.25e-06"
         y="1016.1031" />
    </g>
  </g>
</svg>
